<?xml version="1.0" standalone="no"?>
<!DOCTYPE svg PUBLIC "-//W3C//DTD SVG 20010904//EN"
 "http://www.w3.org/TR/2001/REC-SVG-20010904/DTD/svg10.dtd">
<svg version="1.0" xmlns="http://www.w3.org/2000/svg"
 width="225.000000pt" height="225.000000pt" viewBox="0 0 225.000000 225.000000"
 preserveAspectRatio="xMidYMid meet">

<g transform="translate(0.000000,225.000000) scale(0.100000,-0.100000)"
fill="#000000" stroke="none">
<path d="M1125 1646 c-40 -17 -92 -70 -109 -110 -7 -17 -31 -103 -55 -191 -23
-88 -46 -173 -50 -190 -20 -68 -62 -247 -59 -250 5 -6 138 37 235 74 l81 32
20 67 c47 160 152 551 152 566 0 14 -14 16 -92 16 -54 -1 -106 -6 -123 -14z"/>
<path d="M1520 1491 c-66 -35 -88 -76 -130 -237 -21 -82 -37 -150 -35 -152 6
-6 182 103 263 162 78 58 83 64 101 121 10 33 22 75 26 93 l7 32 -99 0 c-77 0
-106 -4 -133 -19z"/>
<path d="M1927 1424 c-13 -18 -24 -23 -42 -18 -13 3 -30 2 -37 -2 -19 -12 52
-25 74 -13 15 8 34 46 26 54 -1 2 -11 -8 -21 -21z"/>
<path d="M540 1224 c-60 -26 -103 -82 -123 -162 -10 -39 -15 -77 -11 -84 4 -7
3 -9 -2 -5 -9 8 -33 -73 -39 -130 -3 -30 0 -33 25 -33 39 0 274 40 282 49 8 7
56 166 88 290 20 77 20 113 1 82 -6 -9 -11 -10 -15 -2 -11 17 -164 13 -206 -5z"/>
<path d="M1608 1159 c-31 -21 -116 -71 -188 -111 l-133 -73 -42 -160 c-23 -88
-46 -175 -50 -193 l-7 -34 119 4 c113 3 122 5 156 30 19 16 45 41 56 56 17 25
157 509 149 517 -2 2 -28 -15 -60 -36z"/>
<path d="M1005 880 c-66 -21 -139 -41 -162 -45 -47 -8 -40 5 -83 -155 -11 -41
-20 -78 -20 -82 0 -5 48 -8 107 -8 127 0 179 19 220 81 30 46 88 250 70 248
-7 -1 -66 -18 -132 -39z"/>
<path d="M614 790 c-22 -5 -94 -14 -160 -20 -65 -6 -120 -13 -122 -15 -8 -7
-43 -158 -38 -162 3 -3 53 -5 112 -4 121 2 166 18 207 73 19 26 57 116 57 135
0 4 -3 3 -56 -7z"/>
</g>
</svg>
